<svg width="300" height="91" xmlns="http://www.w3.org/2000/svg" xmlns:xlink="http://www.w3.org/1999/xlink"><defs><path id="a" d="M0 91h299.903V.443H0z"/></defs><g fill="none" fill-rule="evenodd"><path fill="#B31918" d="M142.843 25.227v-8.36h6.778v24.84h-6.778V31.72h-7.51v9.986h-6.776v-24.84h6.776v8.36z"/><g transform="translate(0 -.443)"><path d="M160.7 29.73c0 4.263 1.502 6.94 4.668 6.94 3.288 0 4.587-2.677 4.587-6.94 0-3.207-.975-6.818-4.587-6.818-3.613 0-4.668 3.61-4.668 6.818m16.683 0c0 9.903-6.981 12.825-12.015 12.825-5.035 0-12.096-2.922-12.096-12.825 0-9.863 7.266-12.826 12.096-12.826s12.015 2.883 12.015 12.826m12.497 12.825c-6.17 0-9.619-2.555-9.619-2.555l2.637-6.049s4.423 2.232 6.291 2.232c2.07 0 3.287-.73 3.287-1.947 0-2.802-10.39-1.583-10.39-9.498 0-4.506 2.883-7.793 9.296-7.793 5.926 0 8.24 2.517 8.24 2.517l-2.153 4.991c0-.039-2.435-1.583-5.276-1.583-1.707 0-3.084.649-3.084 1.827 0 3.126 10.674 1.38 10.674 8.888 0 5.644-5.034 8.97-9.903 8.97m24.228-18.752h-3.857v4.832h3.857c1.583 0 2.477-.976 2.477-2.396 0-1.461-1.18-2.436-2.477-2.436m.812 11.326h-4.67v7.022h-6.776V17.31h11.446c4.708 0 8.158 4.058 8.158 8.929 0 4.832-3.816 8.89-8.158 8.89" fill="#B31918"/><mask id="b" fill="#fff"><use xlink:href="#a"/></mask><path fill="#B31918" mask="url(#b)" d="M227.216 42.151h6.777V17.31h-6.777zM238.457 23.6v-6.29h20.903v6.29h-7.063v18.55h-6.779V23.6zm30.033 7.388h3.979l-1.99-7.548-1.988 7.548zm6.82-13.678l7.063 24.84h-6.778l-1.583-5.033h-7.063l-1.584 5.034h-6.778l7.023-24.841h9.7zm24.593 18.346v6.495h-13.841V17.309h6.779v18.347zM136.974 54.712h-1.757v11.655h1.757c3.754 0 5.43-2.796 5.43-6.067 0-3.433-1.597-5.588-5.43-5.588m0 18.041h-8.42V48.324h8.42c7.743 0 12.694 3.353 12.694 11.976 0 8.701-6.387 12.453-12.694 12.453m32.089-15.208v5.628h-9.18v3.194h11.735v6.386h-18.402V48.324h18.402v6.388h-11.735v2.833zm22.749 2.995c0 4.19 1.476 6.823 4.59 6.823 3.232 0 4.511-2.634 4.511-6.824 0-3.153-.958-6.708-4.511-6.708s-4.59 3.555-4.59 6.708m16.405 0c0 9.738-6.866 12.613-11.815 12.613s-11.895-2.875-11.895-12.613c0-9.7 7.145-12.614 11.895-12.614s11.815 2.834 11.815 12.614m17.719 5.829v6.386h-13.611v-24.43h6.666v18.044zm17.919-9.822v-8.222h6.666v24.43h-6.666v-9.82h-7.386v9.82h-6.665v-24.43h6.665v8.222zm17.558 3.994c0 4.19 1.478 6.823 4.592 6.823 3.233 0 4.51-2.634 4.51-6.824 0-3.153-.958-6.708-4.51-6.708-3.553 0-4.591 3.555-4.591 6.708m16.404 0c0 9.738-6.863 12.613-11.813 12.613s-11.897-2.875-11.897-12.613c0-9.7 7.147-12.614 11.897-12.614s11.813 2.834 11.813 12.614m12.294 12.614c-6.067 0-9.462-2.516-9.462-2.516l2.596-5.947s4.349 2.195 6.186 2.195c2.035 0 3.235-.718 3.235-1.916 0-2.753-10.22-1.555-10.22-9.34 0-4.431 2.834-7.663 9.14-7.663 5.83 0 8.104 2.473 8.104 2.473l-2.116 4.91c0-.04-2.395-1.555-5.19-1.555-1.674 0-3.032.638-3.032 1.796 0 3.073 10.498 1.357 10.498 8.74 0 5.55-4.95 8.823-9.74 8.823"/><path d="M131.899 91c-1.203 0-2.657-.459-3.632-1.186l.573-1.012c.728.552 2.045 1.09 2.963 1.09 1.454 0 2.659-.844 2.659-2.373 0-2.772-5.812-2.082-5.812-5.447 0-2.2 1.872-3.155 3.86-3.155.977 0 2.105.268 2.85.937l-.402.917c-.63-.498-1.548-.784-2.352-.784-1.28 0-2.771.574-2.771 2.065 0 2.351 5.83 1.72 5.83 5.43 0 2.2-1.662 3.518-3.766 3.518m15.946-4.57h4.034l-2.025-5.907-2.009 5.907zm2.735-7.321l3.976 11.699h-1.205l-1.166-3.325h-4.646l-1.146 3.325h-1.224l3.977-11.699h1.434zm20.517 9.577v-9.577h1.147v11.699h-1.205l-5.659-9.501v9.5h-1.145V79.11h1.203zm10.823-8.526v-1.051h8.985v1.05h-3.92v10.648h-1.166V80.16zm18.93 6.27h4.032l-2.024-5.907-2.009 5.907zm2.733-7.321l3.977 11.699h-1.205l-1.166-3.325h-4.646l-1.146 3.325h-1.224l3.977-11.699h1.433zm30.767 10.629v1.07h-5.068v-11.7h1.148v10.63zm9.1-2.831V79.11h1.148v7.799c0 1.567 1.224 2.965 2.83 2.965 1.625 0 2.848-1.377 2.848-2.966V79.11h1.148v7.799c0 2.257-1.702 4.093-3.996 4.093-2.295 0-3.977-1.837-3.977-4.094m25.983-6.748l-6.518 9.597h6.518v1.05h-7.953v-1.05l6.52-9.598h-6.232v-1.05h7.665zm10.172 10.648h1.148V79.109h-1.148zm13.5-4.378h4.033l-2.025-5.907-2.008 5.907zm2.734-7.321l3.977 11.699h-1.205l-1.167-3.325h-4.646l-1.145 3.325h-1.224l3.977-11.699h1.433zM87.945 14.48c11.088 0 21.695.886 31.468 2.496l-6.48 11.144c-6.69-.67-17.495-1.028-23.101-1.028-5.608 0-8.162.118-11.97.324 8.68 3.899 16.61 9.505 16.647 19.135.038 9.629-14.822 20.164-33.294 20.164-18.471 0-33.451-9.665-33.451-21.585 0-2.481.673-4.758 1.868-6.977C18.442 42.24 11.038 51.252 11.03 57.31c.289 15.239 29.756 27.615 68.33 29.919l.02 2.605C34.977 87.926.002 72.467.002 52.253 0 32.038 39.38 14.48 87.945 14.48" fill="#6F6E6E" mask="url(#b)"/><path d="M102.702.462c14.646.704 18.217.96 25.17 1.965l-5.507 9.487c-8.261-1.177-13.113-1.62-26.092-1.97-34.253-1.31-73.388 9.323-94.007 25.103l-1.236.003C19.577 13.884 57.066-.145 102.702.462" fill="#6F6E6E" mask="url(#b)"/></g></g></svg>